<svg version="1.1" xmlns="http://www.w3.org/2000/svg" xmlns:xlink="http://www.w3.org/1999/xlink" width="677.000000pt" height="688.000000pt" viewBox="0,0,251.90001,256"><g fill="#ff0000" fill-rule="nonzero" stroke="none" stroke-width="1" stroke-linecap="butt" stroke-linejoin="miter" stroke-miterlimit="10" stroke-dasharray="" stroke-dashoffset="0" font-family="none" font-weight="none" font-size="none" text-anchor="none" style="mix-blend-mode: normal"><g transform="translate(-0.00246,0.00104) scale(1.00003,1)"><g><g transform="translate(-0.00301,0.09302) scale(0.37209,0.37209)"><g transform="translate(0,688) scale(0.1,-0.1)"><path d="M5093,6863c-11,-31 -296,-507 -317,-529c-6,-7 -33,-48 -61,-93c-27,-44 -76,-118 -107,-163c-32,-46 -67,-96 -78,-113c-22,-32 -89,-124 -120,-165c-232,-308 -352,-439 -569,-619l-34,-28l26,-129c14,-71 29,-154 32,-184c3,-30 7,-66 9,-80c34,-188 41,-625 13,-825c-9,-66 -28,-167 -43,-225c-41,-165 -41,-164 -15,-150c19,9 122,86 256,190c180,139 386,322 526,467l116,121l-3,-67c-2,-36 -6,-122 -9,-191c-9,-248 -16,-337 -31,-426c-21,-118 -18,-132 19,-100c15,13 27,30 27,38c0,8 14,36 30,62c79,124 270,535 367,791c24,62 30,77 46,115c23,56 148,437 172,530c13,47 30,110 39,140c20,70 69,277 85,355c7,33 19,83 27,111c19,67 18,88 -2,80c-9,-3 -17,-6 -19,-6c-2,0 -29,-35 -62,-77c-32,-43 -112,-132 -179,-199c-111,-111 -174,-157 -191,-140c-4,4 3,46 16,94c94,353 142,651 148,917c4,170 -3,264 -34,428c-16,85 -17,87 -45,87c-18,0 -31,-6 -35,-17z"></path><path d="M6030,5076c0,-14 -4,-27 -9,-30c-5,-3 -12,-23 -16,-43c-3,-21 -17,-63 -30,-93c-12,-30 -40,-98 -61,-150c-20,-52 -48,-120 -62,-150c-13,-30 -39,-91 -57,-135c-31,-74 -52,-121 -160,-350c-54,-117 -141,-292 -176,-355c-17,-30 -51,-93 -77,-140c-25,-47 -56,-102 -69,-122c-12,-21 -23,-40 -23,-43c0,-7 -182,-299 -190,-305c-4,-3 -12,-15 -19,-28c-28,-53 -236,-331 -313,-418c-88,-100 -195,-207 -280,-282c-55,-47 -88,-83 -88,-96c0,-19 6,-19 188,-12c103,4 210,11 237,15c28,5 85,14 127,22c43,7 80,10 84,7c6,-7 -18,-54 -69,-134c-45,-71 -253,-381 -285,-425c-108,-147 -203,-269 -249,-319c-17,-19 -55,-64 -84,-100c-58,-73 -289,-305 -361,-363c-36,-28 -48,-45 -50,-70c-4,-43 18,-77 50,-77c13,0 111,36 216,81c105,45 207,88 226,96c140,59 672,320 845,415c155,85 401,226 460,263c28,17 57,35 65,38c8,4 27,15 42,25c14,9 48,30 75,46c45,27 133,84 333,215c71,47 191,129 452,310c73,51 85,122 43,261c-9,30 -21,74 -25,96c-29,139 -114,314 -153,314c-5,0 -53,-44 -108,-97c-114,-114 -217,-207 -274,-249c-22,-16 -55,-42 -73,-58c-17,-16 -43,-37 -56,-45c-13,-9 -48,-34 -77,-56c-84,-63 -189,-136 -189,-132c0,3 26,24 58,48c31,24 77,63 102,86c25,23 59,52 75,64c46,34 434,420 458,455c12,17 47,64 78,105c91,120 102,178 100,514c-2,300 -33,574 -80,705c-5,14 -12,37 -15,51c-5,22 -10,25 -30,22c-21,-4 -27,-14 -37,-61c-13,-66 -106,-343 -151,-451c-65,-156 -187,-369 -196,-341c-2,6 1,77 7,158c21,284 3,876 -29,993c-6,20 -10,52 -10,70c0,35 -23,157 -42,220c-5,19 -19,41 -29,47c-17,11 -19,9 -19,-12z"></path><path d="M3315,4423c-33,-164 -78,-250 -289,-557c-38,-54 -88,-142 -113,-195c-97,-209 -224,-435 -292,-521c-11,-14 -49,-61 -83,-105c-69,-87 -359,-381 -449,-454c-31,-25 -111,-91 -177,-146c-66,-55 -171,-140 -234,-190c-126,-100 -140,-112 -171,-139c-12,-10 -44,-36 -72,-57c-27,-21 -79,-64 -115,-94c-36,-30 -92,-76 -125,-102c-33,-26 -67,-54 -75,-63c-8,-8 -40,-35 -70,-60c-30,-24 -76,-62 -101,-85c-116,-101 -331,-284 -394,-335c-100,-81 -410,-373 -477,-448c-75,-86 -78,-102 -77,-431c0,-340 4,-356 83,-406l50,-30h330c203,1 368,5 426,13c52,7 111,14 130,16c157,18 460,64 625,96c33,7 94,18 135,26c41,8 93,19 115,24c22,5 63,13 90,19c28,5 79,17 115,26c36,9 83,20 105,25c36,7 171,41 450,114c50,13 131,36 180,51c50,15 119,36 155,46c120,33 245,81 280,108c43,32 141,131 189,191c20,25 52,63 73,85c61,67 271,336 330,425c10,14 31,44 48,68c17,24 27,48 24,54c-4,7 -2,8 4,4c7,-4 44,43 98,126c175,267 166,249 139,284c-12,16 -14,17 -15,3c0,-18 -52,-43 -114,-55c-21,-3 -72,-19 -112,-35c-41,-16 -81,-26 -89,-23c-8,4 -15,2 -15,-4c0,-6 -10,-8 -22,-5c-19,4 -20,3 -8,-6c12,-8 8,-11 -17,-11c-18,0 -33,-4 -33,-8c0,-14 -48,-32 -67,-26c-15,5 -16,4 -3,-5c12,-9 9,-11 -17,-11c-17,0 -33,-4 -35,-9c-6,-17 -147,-81 -165,-75c-12,4 -14,3 -6,-3c16,-11 -72,-57 -90,-47c-7,4 -9,4 -5,-1c4,-4 -29,-29 -75,-55c-45,-26 -120,-70 -166,-98c-84,-52 -108,-62 -95,-40c4,7 3,8 -5,4c-6,-4 -9,-11 -6,-15c2,-5 -7,-13 -21,-20c-15,-6 -23,-7 -19,-1c3,5 1,10 -4,10c-6,0 -11,-6 -11,-14c0,-8 -7,-16 -15,-20c-8,-3 -15,-1 -15,5c0,6 -5,7 -10,4c-6,-4 -8,-10 -5,-14c2,-5 -7,-13 -21,-20c-15,-6 -23,-7 -19,-1c3,5 1,10 -4,10c-6,0 -11,-7 -11,-16c0,-11 -5,-14 -16,-10c-9,3 -27,-3 -41,-14c-16,-13 -34,-18 -47,-15c-17,5 -18,4 -6,-4c13,-9 12,-11 -5,-12c-11,-1 -28,-1 -38,-1c-10,1 -16,-2 -13,-7c7,-11 -49,-32 -59,-23c-3,4 -10,1 -14,-6c-4,-7 -22,-14 -39,-15c-18,-1 -32,-6 -32,-11c0,-4 -6,-6 -14,-3c-8,3 -16,1 -19,-6c-2,-6 -24,-12 -49,-12c-25,0 -44,-3 -42,-6c4,-7 -164,-41 -221,-45c-16,-1 -63,-6 -102,-10c-85,-8 -91,0 -45,59c15,19 47,62 72,94c24,32 64,83 88,113c164,203 414,532 476,625c14,22 72,108 129,192c226,336 385,625 522,948c65,156 163,472 184,600c6,33 17,96 25,140c36,189 32,282 -17,400c-24,58 -89,167 -117,198c-11,11 -20,24 -20,28c0,15 -44,49 -62,49c-11,0 -20,-10 -23,-27z"></path></g></g></g></g></g></svg>